# xmcd
#
# Track frame offsets:
#	150
#	20318
#	41562
#	60241
#	77045
#	91766
#	111715
#	126849
#	138478
#	153335
#	168193
#	183129
#	202057
#	216585
#	227210
#
# Disc length: 3196 seconds
#
# Revision: 1
# Processed by: cddbd v1.5.1PL0 Copyright (c) Steve Scherf et al.
# Submitted via: EasyCDDAExtractor 7.0.6.1
#
DISCID=cb0c7a0f
DTITLE=Boleros - Boleros con mucho sentimiento con mariachi
DYEAR=1999
DGENRE=Blues
TTITLE0=Dejaría todo
TTITLE1=Amar y querer
TTITLE2=Me vas a extrañar
TTITLE3=Nunca voy a olvidarte
TTITLE4=Jamás
TTITLE5=Si no te hubieras ido
TTITLE6=Amnecia
TTITLE7=Entrega total
TTITLE8=Almohada
TTITLE9=Que bueno
TTITLE10=Desden
TTITLE11=Por mujeres como tu
TTITLE12=Tatuajes
TTITLE13=No por que seas tu
TTITLE14=Serenata huasteca
EXTD=
EXTT0=
EXTT1=
EXTT2=
EXTT3=
EXTT4=
EXTT5=
EXTT6=
EXTT7=
EXTT8=
EXTT9=
EXTT10=
EXTT11=
EXTT12=
EXTT13=
EXTT14=
PLAYORDER=
